<?xml version="1.0" standalone="no"?>
<!DOCTYPE svg PUBLIC "-//W3C//DTD SVG 20010904//EN"
 "http://www.w3.org/TR/2001/REC-SVG-20010904/DTD/svg10.dtd">
<svg version="1.0" xmlns="http://www.w3.org/2000/svg"
 width="500.000000pt" height="500.000000pt" viewBox="0 0 500.000000 500.000000"
 preserveAspectRatio="xMidYMid meet">
<metadata>
Created by potrace 1.11, written by Peter Selinger 2001-2013
</metadata>
<g transform="translate(0.000000,500.000000) scale(0.100000,-0.100000)"
fill="#000000" stroke="none">
<path d="M2494 4592 c-6 -4 -65 -115 -131 -247 -180 -360 -265 -516 -613
-1120 -375 -653 -491 -876 -567 -1095 -67 -190 -76 -249 -70 -429 16 -439 196
-784 543 -1043 242 -179 486 -264 796 -275 280 -10 509 44 733 173 366 212
623 582 690 999 21 129 19 302 -4 400 -64 267 -178 499 -621 1270 -349 606
-432 759 -617 1128 -68 136 -125 247 -126 247 -1 0 -7 -4 -13 -8z"/>
</g>
</svg>
